<svg width="21" height="10" viewBox="0 0 21 10" fill="none" xmlns="http://www.w3.org/2000/svg">
<rect width="21" height="10" fill="#1E1E1E"/>
<g id="home" clip-path="url(#clip0_0_1)">
<rect width="1440" height="9686" transform="translate(-214 -8160)" fill="#FAFAFC"/>
<g id="Group 1000005098">
<g id="Rectangle 54" filter="url(#filter0_d_0_1)">
<rect x="-112" y="-422.26" width="396" height="458" rx="14" fill="white"/>
<rect x="-111.7" y="-421.96" width="395.4" height="457.4" rx="13.7" stroke="#333333" stroke-opacity="0.2" stroke-width="0.6"/>
</g>
<g id="Group 71">
<path id="Arrow 3" d="M20.4243 5.1645C20.6586 4.93018 20.6586 4.55028 20.4243 4.31597L16.6059 0.497592C16.3716 0.263278 15.9917 0.263278 15.7574 0.497592C15.523 0.731907 15.523 1.11181 15.7574 1.34612L19.1515 4.74023L15.7574 8.13435C15.523 8.36866 15.523 8.74856 15.7574 8.98287C15.9917 9.21719 16.3716 9.21719 16.6059 8.98287L20.4243 5.1645ZM5.24537e-08 5.34023L20 5.34023L20 4.14023L-5.24537e-08 4.14023L5.24537e-08 5.34023Z" fill="#4900D8"/>
</g>
</g>
</g>
<defs>
<filter id="filter0_d_0_1" x="-140" y="-449.26" width="452" height="514" filterUnits="userSpaceOnUse" color-interpolation-filters="sRGB">
<feFlood flood-opacity="0" result="BackgroundImageFix"/>
<feColorMatrix in="SourceAlpha" type="matrix" values="0 0 0 0 0 0 0 0 0 0 0 0 0 0 0 0 0 0 127 0" result="hardAlpha"/>
<feOffset dy="1"/>
<feGaussianBlur stdDeviation="14"/>
<feComposite in2="hardAlpha" operator="out"/>
<feColorMatrix type="matrix" values="0 0 0 0 0 0 0 0 0 0 0 0 0 0 0 0 0 0 0.04 0"/>
<feBlend mode="normal" in2="BackgroundImageFix" result="effect1_dropShadow_0_1"/>
<feBlend mode="normal" in="SourceGraphic" in2="effect1_dropShadow_0_1" result="shape"/>
</filter>
<clipPath id="clip0_0_1">
<rect width="1440" height="9686" fill="white" transform="translate(-214 -8160)"/>
</clipPath>
</defs>
</svg>
